<?xml version="1.0" encoding="utf-8"?>
<!-- Generator: Adobe Illustrator 15.1.0, SVG Export Plug-In . SVG Version: 6.00 Build 0)  -->
<!DOCTYPE svg PUBLIC "-//W3C//DTD SVG 1.1//EN" "http://www.w3.org/Graphics/SVG/1.1/DTD/svg11.dtd">
<svg version="1.1" id="Ebene_1" xmlns="http://www.w3.org/2000/svg" xmlns:xlink="http://www.w3.org/1999/xlink" x="0px" y="0px"
	 width="16px" height="16px" viewBox="0 0 16 16" enable-background="new 0 0 16 16" xml:space="preserve">
<path fill="#959595" d="M8,0C3.582,0,0,3.581,0,8c0,2.049,0.776,3.911,2.043,5.327C3.508,14.964,5.631,16,8,16
	c2.398,0,4.544-1.061,6.011-2.732C15.246,11.859,16,10.02,16,8C16,3.581,12.417,0,8,0z M13.589,12.195
	c-0.516-0.424-1.529-0.741-2.543-1.164c-1.207-0.502-1.49-0.678-1.49-0.678L9.544,9.196c0,0,0.449-0.347,0.592-1.438
	c0.281,0.083,0.578-0.421,0.596-0.686c0.014-0.255-0.039-0.965-0.385-0.895c0.07-0.534,0.121-1.014,0.096-1.268
	C10.355,3.98,9.439,3,8.029,3C6.624,3,5.706,3.98,5.616,4.911C5.593,5.165,5.643,5.645,5.713,6.179
	C5.367,6.108,5.313,6.818,5.33,7.073c0.016,0.265,0.312,0.769,0.595,0.686c0.14,1.09,0.592,1.438,0.592,1.438l-0.012,1.157
	c0,0-0.285,0.176-1.49,0.678c-1.038,0.433-2.079,0.754-2.583,1.193C1.537,11.049,1,9.588,1,8c0-3.86,3.141-7,7-7c3.859,0,7,3.14,7,7
	C15,9.574,14.47,11.023,13.589,12.195z"/>
</svg>
