<?xml version="1.0" encoding="utf-8"?>
<!-- Generator: Adobe Illustrator 15.1.0, SVG Export Plug-In . SVG Version: 6.00 Build 0)  -->
<!DOCTYPE svg PUBLIC "-//W3C//DTD SVG 1.1//EN" "http://www.w3.org/Graphics/SVG/1.1/DTD/svg11.dtd">
<svg version="1.1" id="Ebene_1" xmlns="http://www.w3.org/2000/svg" xmlns:xlink="http://www.w3.org/1999/xlink" x="0px" y="0px"
	 width="20px" height="23px" viewBox="0 0 20 23" enable-background="new 0 0 20 23" xml:space="preserve">
<g>
	<path fill="#B1B1B1" d="M12.932,17.028l-0.149,1.22c3.153,0.34,4.353,1.218,4.718,1.678c-0.458,0.579-2.192,1.823-7.5,1.823
		s-7.042-1.244-7.5-1.823c0.366-0.46,1.566-1.341,4.724-1.68l-0.151-1.218C2.982,17.408,0,18.559,0,19.926
		c0,1.678,4.478,3.038,10,3.038s10-1.36,10-3.038C20,18.559,17.021,17.408,12.932,17.028z"/>
	<path fill="#B1B1B1" d="M10-0.036c-3.106,0-5.625,2.448-5.625,5.468c0,5.193,5,4.253,5,13.974c1.25,0,1.25,0,1.25,0
		c0-9.721,5-8.816,5-13.974C15.625,2.412,13.107-0.036,10-0.036z M10,7.255c-1.035,0-1.875-0.816-1.875-1.823S8.965,3.609,10,3.609
		s1.875,0.816,1.875,1.823S11.035,7.255,10,7.255z"/>
</g>
</svg>
