<?xml version="1.0" encoding="utf-8"?>
<!-- Generator: Adobe Illustrator 16.0.4, SVG Export Plug-In . SVG Version: 6.00 Build 0)  -->
<!DOCTYPE svg PUBLIC "-//W3C//DTD SVG 1.1//EN" "http://www.w3.org/Graphics/SVG/1.1/DTD/svg11.dtd">
<svg version="1.1" id="Layer_1" xmlns="http://www.w3.org/2000/svg" xmlns:xlink="http://www.w3.org/1999/xlink" x="0px" y="0px"
	 width="12px" height="12px" viewBox="0 0 12 12" enable-background="new 0 0 12 12" xml:space="preserve">
<g>
	<rect x="4.125" y="4.5" fill="#616160" width="1.5" height="1.5"/>
	<rect x="6.375" y="4.5" fill="#616160" width="1.5" height="1.5"/>
	<rect x="8.625" y="4.5" fill="#616160" width="1.501" height="1.5"/>
	<rect x="1.874" y="6.752" fill="#616160" width="1.501" height="1.498"/>
	<rect x="4.125" y="6.752" fill="#616160" width="1.5" height="1.498"/>
	<rect x="6.375" y="6.752" fill="#616160" width="1.5" height="1.498"/>
	<rect x="8.625" y="6.752" fill="#616160" width="1.501" height="1.498"/>
	<rect x="1.874" y="9" fill="#616160" width="1.501" height="1.504"/>
	<rect x="4.125" y="9" fill="#616160" width="1.5" height="1.504"/>
	<rect x="6.375" y="9" fill="#616160" width="1.5" height="1.504"/>
	<path fill="#616160" d="M10.126,1.5V0.375C10.126,0.169,9.957,0,9.75,0H8.251C8.044,0,7.875,0.169,7.875,0.375V1.5h-3.75V0.375
		C4.125,0.169,3.957,0,3.75,0H2.249C2.042,0,1.874,0.169,1.874,0.375V1.5h-1.5V12h11.252V1.5H10.126z M8.625,0.75h0.75v1.5h-0.75
		V0.75z M2.624,0.75h0.751v1.5H2.624V0.75z M10.876,11.252H1.124V3.75h9.752V11.252z"/>
</g>
</svg>
