<?xml version="1.0" encoding="utf-8"?>
<!-- Generator: Adobe Illustrator 15.1.0, SVG Export Plug-In . SVG Version: 6.00 Build 0)  -->
<!DOCTYPE svg PUBLIC "-//W3C//DTD SVG 1.1//EN" "http://www.w3.org/Graphics/SVG/1.1/DTD/svg11.dtd">
<svg version="1.1" id="Ebene_1" xmlns="http://www.w3.org/2000/svg" xmlns:xlink="http://www.w3.org/1999/xlink" x="0px" y="0px"
	 width="16px" height="32px" viewBox="0 0 16 32" enable-background="new 0 0 16 32" xml:space="preserve">
<g>
	<path fill="#009EE3" d="M8,1C4.135,1,1,4.133,1,8s3.135,7,7,7c3.866,0,7-3.133,7-7S11.866,1,8,1z M8,13.934
		c-3.272,0-5.934-2.661-5.934-5.934c0-3.271,2.662-5.934,5.934-5.934c3.272,0,5.934,2.663,5.934,5.934
		C13.934,11.272,11.272,13.934,8,13.934z"/>
	<polygon fill="#009EE3" points="9,5 7,5 7,7 5,7 5,9 7,9 7,11 9,11 9,9 11,9 11,7 9,7 	"/>
</g>
<g>
	<path fill="#009EE3" d="M8,17c-3.865,0-7,3.133-7,7s3.135,7,7,7c3.867,0,7-3.133,7-7S11.867,17,8,17z M8,29.934
		c-3.272,0-5.934-2.661-5.934-5.934c0-3.271,2.662-5.934,5.934-5.934c3.273,0,5.933,2.663,5.933,5.934
		C13.934,27.272,11.273,29.934,8,29.934z"/>
	<rect x="5" y="23" fill="#009EE3" width="6" height="2"/>
</g>
</svg>
