<?xml version="1.0" encoding="utf-8"?>
<!-- Generator: Adobe Illustrator 15.1.0, SVG Export Plug-In . SVG Version: 6.00 Build 0)  -->
<!DOCTYPE svg PUBLIC "-//W3C//DTD SVG 1.1//EN" "http://www.w3.org/Graphics/SVG/1.1/DTD/svg11.dtd">
<svg version="1.1" id="Ebene_1" xmlns="http://www.w3.org/2000/svg" xmlns:xlink="http://www.w3.org/1999/xlink" x="0px" y="0px"
	 width="25px" height="23px" viewBox="0 0 25 23" enable-background="new 0 0 25 23" xml:space="preserve">
<g>
	<path fill="#959595" d="M12.522,1.268c1.413,0,2.562,1.157,2.562,2.58c0,1.422-1.148,2.579-2.562,2.579
		c-1.414,0-2.563-1.157-2.563-2.579C9.959,2.425,11.108,1.268,12.522,1.268 M12.522,0C10.41,0,8.698,1.722,8.698,3.848
		c0,2.125,1.712,3.848,3.825,3.848c2.11,0,3.822-1.723,3.822-3.848C16.345,1.722,14.633,0,12.522,0L12.522,0z"/>
	<path fill="#959595" d="M16.809,8.54c1.412,0,2.562,1.158,2.562,2.579c0,1.422-1.149,2.58-2.562,2.58
		c-1.417,0-2.565-1.158-2.565-2.58C14.243,9.698,15.392,8.54,16.809,8.54 M16.809,7.272c-2.112,0-3.824,1.723-3.824,3.847
		c0,2.126,1.712,3.849,3.824,3.849c2.11,0,3.822-1.723,3.822-3.849C20.631,8.995,18.919,7.272,16.809,7.272L16.809,7.272z"/>
	<path fill="#959595" d="M8.025,8.54c1.414,0,2.563,1.158,2.563,2.579c0,1.422-1.149,2.58-2.563,2.58
		c-1.413,0-2.563-1.158-2.563-2.58C5.462,9.698,6.612,8.54,8.025,8.54 M8.025,7.272c-2.111,0-3.823,1.723-3.823,3.847
		c0,2.126,1.712,3.849,3.823,3.849s3.824-1.723,3.824-3.849C11.85,8.995,10.137,7.272,8.025,7.272L8.025,7.272z"/>
	<path fill="#959595" d="M21.176,16.573c1.413,0,2.564,1.157,2.564,2.581c0,1.422-1.151,2.577-2.564,2.577
		c-1.411,0-2.561-1.155-2.561-2.577C18.615,17.73,19.765,16.573,21.176,16.573 M21.176,15.305c-2.11,0-3.822,1.723-3.822,3.85
		c0,2.123,1.712,3.846,3.822,3.846C23.289,23,25,21.277,25,19.154C25,17.027,23.289,15.305,21.176,15.305L21.176,15.305z"/>
	<path fill="#959595" d="M12.396,16.573c1.414,0,2.563,1.157,2.563,2.581c0,1.422-1.149,2.577-2.563,2.577
		c-1.413,0-2.563-1.155-2.563-2.577C9.833,17.73,10.982,16.573,12.396,16.573 M12.396,15.305c-2.112,0-3.824,1.723-3.824,3.85
		c0,2.123,1.712,3.846,3.824,3.846c2.111,0,3.823-1.723,3.823-3.846C16.219,17.027,14.507,15.305,12.396,15.305L12.396,15.305z"/>
	<path fill="#959595" d="M3.823,16.573c1.414,0,2.563,1.157,2.563,2.581c0,1.422-1.15,2.577-2.563,2.577
		c-1.413,0-2.562-1.155-2.562-2.577C1.261,17.73,2.41,16.573,3.823,16.573 M3.823,15.305C1.712,15.305,0,17.027,0,19.154
		C0,21.277,1.712,23,3.823,23c2.112,0,3.824-1.723,3.824-3.846C7.647,17.027,5.936,15.305,3.823,15.305L3.823,15.305z"/>
</g>
</svg>
