<?xml version="1.0" encoding="utf-8"?>
<!-- Generator: Adobe Illustrator 15.1.0, SVG Export Plug-In . SVG Version: 6.00 Build 0)  -->
<!DOCTYPE svg PUBLIC "-//W3C//DTD SVG 1.1//EN" "http://www.w3.org/Graphics/SVG/1.1/DTD/svg11.dtd">
<svg version="1.1" id="Ebene_1" xmlns="http://www.w3.org/2000/svg" xmlns:xlink="http://www.w3.org/1999/xlink" x="0px" y="0px"
	 width="14.379px" height="14.379px" viewBox="0 0 14.379 14.379" enable-background="new 0 0 14.379 14.379" xml:space="preserve">
<path fill="#1B9BD7" stroke="#1B9BD7" stroke-width="0.25" stroke-linecap="round" stroke-linejoin="round" stroke-miterlimit="10" d="
	M7.189,0.125c-3.901,0-7.064,3.162-7.064,7.064s3.164,7.064,7.064,7.064c3.901,0,7.064-3.162,7.064-7.064S11.091,0.125,7.189,0.125z
	 M7.189,13.178c-3.302,0-5.988-2.686-5.988-5.988c0-3.301,2.686-5.988,5.988-5.988c3.303,0,5.988,2.688,5.988,5.988
	C13.178,10.492,10.492,13.178,7.189,13.178z"/>
<polygon fill="#1B9BD7" stroke="#1B9BD7" stroke-width="0.25" stroke-linecap="round" stroke-linejoin="round" stroke-miterlimit="10" points="
	8.125,4.141 6.125,4.141 6.125,6.141 4.125,6.141 4.125,8.141 6.125,8.141 6.125,10.141 8.125,10.141 8.125,8.141 10.125,8.141 
	10.125,6.141 8.125,6.141 "/>
</svg>
