<?xml version="1.0" encoding="utf-8"?>
<!-- Generator: Adobe Illustrator 15.1.0, SVG Export Plug-In . SVG Version: 6.00 Build 0)  -->
<!DOCTYPE svg PUBLIC "-//W3C//DTD SVG 1.1//EN" "http://www.w3.org/Graphics/SVG/1.1/DTD/svg11.dtd">
<svg version="1.1" id="Layer_1" xmlns="http://www.w3.org/2000/svg" xmlns:xlink="http://www.w3.org/1999/xlink" x="0px" y="0px"
	 width="12px" height="12px" viewBox="0 0 12 12" enable-background="new 0 0 12 12" xml:space="preserve">
<g>
	<path fill="#009EE3" d="M9.602,6.4V2.399h-4l1.532,1.532L4.663,6.4H0V12h5.6V7.395l2.498-2.498L9.602,6.4z M4,10.398H1.601V7.999H4
		V10.398z"/>
	<rect y="4.8" fill="#009EE3" width="0.799" height="0.799"/>
	<rect y="3.2" fill="#009EE3" width="0.799" height="0.799"/>
	<rect y="1.6" fill="#009EE3" width="0.799" height="0.799"/>
	<rect fill="#009EE3" width="0.799" height="0.799"/>
	<rect x="11.2" y="9.602" fill="#009EE3" width="0.8" height="0.799"/>
	<rect x="11.2" y="7.999" fill="#009EE3" width="0.8" height="0.801"/>
	<rect x="11.2" y="6.4" fill="#009EE3" width="0.8" height="0.802"/>
	<rect x="11.2" y="4.8" fill="#009EE3" width="0.8" height="0.799"/>
	<rect x="11.2" y="3.2" fill="#009EE3" width="0.8" height="0.799"/>
	<rect x="11.2" y="1.6" fill="#009EE3" width="0.8" height="0.799"/>
	<rect x="11.2" fill="#009EE3" width="0.8" height="0.799"/>
	<rect x="9.602" fill="#009EE3" width="0.799" height="0.799"/>
	<rect x="7.999" fill="#009EE3" width="0.801" height="0.799"/>
	<rect x="6.401" fill="#009EE3" width="0.798" height="0.799"/>
	<rect x="4.801" fill="#009EE3" width="0.799" height="0.799"/>
	<rect x="3.201" fill="#009EE3" width="0.799" height="0.799"/>
	<rect x="1.601" fill="#009EE3" width="0.799" height="0.799"/>
	<rect x="6.401" y="11.199" fill="#009EE3" width="0.798" height="0.801"/>
	<rect x="7.999" y="11.199" fill="#009EE3" width="0.801" height="0.801"/>
	<rect x="9.602" y="11.199" fill="#009EE3" width="0.799" height="0.801"/>
	<rect x="11.2" y="11.199" fill="#009EE3" width="0.8" height="0.801"/>
</g>
</svg>
